<svg xmlns="http://www.w3.org/2000/svg" data-name="Layer 1" viewBox="0 0 18 22.5" x="0px" y="0px"><title>Artboard 1 copy</title><path fill="#FFFFFF" d="M6.09,9.71A3.29,3.29,0,0,1,6,9,3,3,0,0,1,9,6l.24,0,.81-.94A7.31,7.31,0,0,0,9,5C5.39,5,2.34,7.67,1.34,8.65a.48.48,0,0,0,0,.7,15.35,15.35,0,0,0,3.08,2.32Z"/><path fill="#FFFFFF" d="M16.66,8.65a15.35,15.35,0,0,0-3.08-2.32l-1.67,2A3.29,3.29,0,0,1,12,9a3,3,0,0,1-3,3l-.24,0L8,12.92A7.31,7.31,0,0,0,9,13c3.61,0,6.66-2.67,7.66-3.65A.48.48,0,0,0,16.66,8.65Z"/><path fill="#FFFFFF" d="M14,4l-.84-.72a.22.22,0,0,0-.29,0L4,13.68A.21.21,0,0,0,4,14l.83.71a.22.22,0,0,0,.29,0L14,4.31A.19.19,0,0,0,14,4Z"/></svg>