<svg xmlns:dc="http://purl.org/dc/elements/1.1/" xmlns:cc="http://creativecommons.org/ns#" xmlns:rdf="http://www.w3.org/1999/02/22-rdf-syntax-ns#" xmlns:svg="http://www.w3.org/2000/svg" xmlns="http://www.w3.org/2000/svg" xmlns:sodipodi="http://sodipodi.sourceforge.net/DTD/sodipodi-0.dtd" xmlns:inkscape="http://www.inkscape.org/namespaces/inkscape" version="1.1" x="0px" y="0px" viewBox="0 0 100 125"><g transform="translate(0,-952.36218)"><path style="text-indent:0;text-transform:none;direction:ltr;block-progression:tb;baseline-shift:baseline;color:#000000;enable-background:accumulate;" d="m 50,957.36218 c -11.01022,0 -20,8.9899 -20,20 0,11.0102 8.98978,20 20,20 11.01022,0 20,-8.9898 20,-20 0,-11.0101 -8.98978,-20 -20,-20 z m 0,6 c 7.7676,0 14,6.2325 14,14 0,7.7675 -6.2324,14 -14,14 -7.7676,0 -14,-6.2325 -14,-14 0,-7.7675 6.2324,-14 14,-14 z m 0,38.00002 c -22.69357,0 -41,19.3684 -41,43 a 3.0003,3.0003 0 0 0 3,3 l 76,0 a 3.0003,3.0003 0 0 0 3,-3 c 0,-23.6316 -18.30642,-43 -41,-43 z m 0,6 c 18.31646,0 33.25452,14.8952 34.71875,34 l -69.4375,0 c 1.46423,-19.1048 16.4023,-34 34.71875,-34 z" fill="#ffffff" fill-opacity="1" marker="none" visibility="visible" display="inline" overflow="visible"/></g></svg>