<svg xmlns="http://www.w3.org/2000/svg" data-name="Layer 1" viewBox="0 0 18 22.5" x="0px" y="0px"><title>Artboard 1</title><path fill="#ffffff" d="M9,12.62c-3.51,0-6.55-2.7-7.39-3.53V8.91C2.45,8.08,5.49,5.38,9,5.38s6.55,2.7,7.39,3.53v.18C15.55,9.92,12.51,12.62,9,12.62Zm0-7A3.38,3.38,0,1,0,12.38,9,3.39,3.39,0,0,0,9,5.62Z"/><path fill="#ffffff" d="M6.51,6.2a3.74,3.74,0,0,0,0,5.6A13.32,13.32,0,0,1,2.06,9,13.32,13.32,0,0,1,6.51,6.2m5,0A13.32,13.32,0,0,1,15.94,9a13.32,13.32,0,0,1-4.45,2.8,3.74,3.74,0,0,0,0-5.6M9,5C5.39,5,2.34,7.67,1.34,8.65a.48.48,0,0,0,0,.7C2.34,10.33,5.39,13,9,13s6.66-2.67,7.66-3.65a.48.48,0,0,0,0-.7C15.66,7.67,12.61,5,9,5Zm0,7a3,3,0,1,1,3-3,3,3,0,0,1-3,3Z"/></svg>